<svg xmlns="http://www.w3.org/2000/svg" width="16.024" height="19.23" viewBox="0 0 16.024 19.23"><defs><style>.a{fill:#fff;}</style></defs><g transform="translate(-42.675)"><g transform="translate(42.675)"><path class="a" d="M58.643,16.22l-1.376-2.293a6.812,6.812,0,0,1-.971-3.5V8.413A5.616,5.616,0,0,0,52.29,3.041V1.6a1.6,1.6,0,0,0-3.205,0V3.041a5.616,5.616,0,0,0-4.006,5.372v2.009a6.816,6.816,0,0,1-.97,3.5l-1.376,2.293a.4.4,0,0,0,.343.607H58.3a.4.4,0,0,0,.344-.607Z" transform="translate(-42.675 0)"/></g><g transform="translate(48.164 17.627)"><path class="a" d="M188.815,469.333a2.787,2.787,0,0,0,5.046,0Z" transform="translate(-188.815 -469.333)"/></g></g></svg>